<?xml version="1.0" standalone="no"?><!DOCTYPE svg PUBLIC "-//W3C//DTD SVG 1.1//EN" "http://www.w3.org/Graphics/SVG/1.1/DTD/svg11.dtd"><svg t="1547697429739" class="icon" style="" viewBox="0 0 1024 1024" version="1.1" xmlns="http://www.w3.org/2000/svg" p-id="5119" xmlns:xlink="http://www.w3.org/1999/xlink" width="32" height="32"><defs><style type="text/css"></style></defs><path d="M570 510.8l254.9-255.1c16.4-16.5 16.4-43 0-59.5s-43-16.5-59.5 0L510.5 451.3 255.8 196.2c-16.4-16.5-43-16.5-59.5 0-16.4 16.5-16.4 43 0 59.5l254.9 255.1-254.9 255c-16.4 16.5-16.4 43 0 59.5 8.1 8.2 18.9 12.4 29.7 12.4s21.5-4.1 29.7-12.4l254.7-255 254.8 255c8.1 8.2 19 12.4 29.7 12.4 10.8 0 21.5-4.1 29.6-12.4 16.4-16.5 16.4-43 0-59.5L570 510.8z m0 0" p-id="5120" fill="#7dc5eb"></path></svg>